<?xml version="1.0" encoding="UTF-8" standalone="no"?>
<!-- Created with Inkscape (http://www.inkscape.org/) -->

<svg
   xmlns:dc="http://purl.org/dc/elements/1.1/"
   xmlns:cc="http://creativecommons.org/ns#"
   xmlns:rdf="http://www.w3.org/1999/02/22-rdf-syntax-ns#"
   xmlns:svg="http://www.w3.org/2000/svg"
   xmlns="http://www.w3.org/2000/svg"
   xmlns:sodipodi="http://sodipodi.sourceforge.net/DTD/sodipodi-0.dtd"
   xmlns:inkscape="http://www.inkscape.org/namespaces/inkscape"
   width="128"
   height="128"
   viewBox="0 0 33.866667 33.866667"
   version="1.1"
   id="svg869"
   inkscape:version="0.92.3 (2405546, 2018-03-11)"
   sodipodi:docname="afropeanbase-logo.svg">
  <defs
     id="defs863" />
  <sodipodi:namedview
     id="base"
     pagecolor="#ffffff"
     bordercolor="#ff0000"
     borderopacity="1"
     inkscape:pageopacity="0.0"
     inkscape:pageshadow="2"
     inkscape:zoom="3.959798"
     inkscape:cx="73.412335"
     inkscape:cy="52.084187"
     inkscape:document-units="mm"
     inkscape:current-layer="layer4"
     showgrid="false"
     units="px"
     inkscape:window-width="1554"
     inkscape:window-height="1062"
     inkscape:window-x="4010"
     inkscape:window-y="61"
     inkscape:window-maximized="0"
     borderlayer="true" />
  <metadata
     id="metadata866">
    <rdf:RDF>
      <cc:Work
         rdf:about="">
        <dc:format>image/svg+xml</dc:format>
        <dc:type
           rdf:resource="http://purl.org/dc/dcmitype/StillImage" />
        <dc:title></dc:title>
      </cc:Work>
    </rdf:RDF>
  </metadata>
  <g
     inkscape:groupmode="layer"
     id="layer4"
     inkscape:label="background-2"
     style="display:inline"
     transform="translate(0,21.166667)">
    <rect
       style="fill:#0056db;fill-opacity:1;stroke:none;stroke-width:0.97166026;stroke-linecap:round;stroke-linejoin:round;stroke-miterlimit:4;stroke-dasharray:none;stroke-dashoffset:0;stroke-opacity:1;paint-order:markers fill stroke"
       id="rect1454"
       width="34.182079"
       height="34.388451"
       x="-0.12663119"
       y="-21.499752" />
  </g>
  <g
     inkscape:groupmode="layer"
     id="layer3"
     inkscape:label="background"
     style="display:inline"
     transform="translate(0,21.166667)">
    <path
       style="fill:#ebb800;fill-opacity:1;stroke-width:0.02328264"
       d="m 17.126794,0.14514562 c -0.420222,-0.15355113 -0.09193,-0.56692309 -0.542953,-0.86517972 -0.32383,-0.5450216 -0.349386,-1.2016586 -0.804015,-1.6953126 -0.112432,-0.6095461 0.617106,-1.036731 0.248784,-1.584166 0.01241,-0.6394762 -0.718791,-1.0203455 -0.879938,-1.5605836 0.200225,-0.3037452 0.328639,-1.136655 -0.361583,-0.9552317 -0.43745,0.030423 -0.439008,-0.7236371 -0.99712,-0.4312983 -0.507543,0.3652539 -1.068926,0.025264 -1.614555,0.208459 -0.51367,-0.023021 -1.044077,-0.5931457 -1.186674,-1.0764373 -0.104508,-0.4191191 -0.633725,-0.5908158 -0.501457,-1.0397397 -0.08648,-0.3688027 0.345955,-0.8030048 0.294044,-1.2245097 -0.224964,-0.491475 0.415771,-0.910085 0.668416,-1.284568 0.379249,-0.280462 0.824294,-0.457618 0.946557,-0.976466 0.275188,-0.173251 0.55736,-0.512368 0.813492,-0.57888 0.49978,0.382239 1.071567,-0.321697 1.64681,-0.09011 0.333393,0.02457 1.166557,-0.230166 0.906656,0.222454 0.0134,0.300876 -0.220211,0.419712 0.188139,0.536816 0.482611,-0.03694 0.798756,0.550581 1.250167,0.475643 -0.03934,-0.466251 0.474108,-0.561539 0.82051,-0.326954 0.479932,0.257637 1.026866,0.0044 1.435841,0.08417 0.663181,-0.08502 0.217167,0.683325 0.399086,0.906329 0.338447,0.52251 0.650282,0.980647 0.901482,1.5240331 0.176942,0.5602477 0.860484,0.7259401 1.070416,1.2345433 0.255699,0.4820325 0.913359,-0.2481418 1.288693,-0.2510466 0.03847,0.6118859 -0.192113,1.234085 -0.512233,1.7501801 -0.365759,0.4934191 -0.832177,0.9119266 -1.193933,1.4106332 -0.307622,0.4440971 -0.307222,0.9348913 -0.111184,1.4020811 0.140581,0.5752736 -0.05567,1.2651392 -0.687835,1.4400833 -0.528183,0.2515598 -0.404562,0.6734283 -0.51765,1.1327824 -0.449075,0.062479 -0.442302,0.4248061 -0.668811,0.70689604 -0.422803,0.41902568 -0.921857,0.87198073 -1.569005,0.83185095 -0.245554,-0.03104572 -0.507819,0.17329178 -0.730147,0.07352973 z"
       id="path1430"
       inkscape:connector-curvature="0"
       sodipodi:nodetypes="ccccccccccccccccccccccccccccccccc" />
    <g
       id="g1451"
       transform="matrix(1.6240248,0,0,1.6240248,6.6443061,-8.0875731)">
      <g
         inkscape:label="background"
         id="layer2" />
      <g
         transform="translate(0,-284.3)"
         id="layer1-8"
         inkscape:label="Layer 1">
        <text
           id="text817"
           y="291.70969"
           x="0.41275549"
           style="font-style:italic;font-variant:normal;font-weight:500;font-stretch:normal;font-size:2.82280993px;line-height:1.25;font-family:Ubuntu;-inkscape-font-specification:'Ubuntu, Medium Italic';font-variant-ligatures:normal;font-variant-caps:normal;font-variant-numeric:normal;font-feature-settings:normal;text-align:start;letter-spacing:0px;word-spacing:0px;writing-mode:lr-tb;text-anchor:start;fill:#ebb800;fill-opacity:1;stroke:none;stroke-width:0.07057038"
           xml:space="preserve"><tspan
             style="font-style:italic;font-variant:normal;font-weight:500;font-stretch:normal;font-size:2.82280993px;font-family:Ubuntu;-inkscape-font-specification:'Ubuntu, Medium Italic';font-variant-ligatures:normal;font-variant-caps:normal;font-variant-numeric:normal;font-feature-settings:normal;text-align:start;writing-mode:lr-tb;text-anchor:start;fill:#ebb800;fill-opacity:1;stroke-width:0.07057038"
             y="291.70969"
             x="0.41275549"
             id="tspan815"
             sodipodi:role="line">Afropean</tspan></text>
        <rect
           transform="rotate(-5.0097518)"
           y="291.789"
           x="-23.845615"
           height="3.4995968"
           width="8.9989634"
           id="rect860"
           style="fill:#ebb800;fill-opacity:1;stroke:none;stroke-width:0.69584656;stroke-linecap:round;stroke-linejoin:round;stroke-miterlimit:4;stroke-dasharray:none;stroke-dashoffset:0;stroke-opacity:1;paint-order:markers fill stroke" />
        <text
           id="text817-8"
           y="295.13419"
           x="3.097676"
           style="font-style:italic;font-variant:normal;font-weight:500;font-stretch:normal;font-size:2.82280993px;line-height:1.25;font-family:Ubuntu;-inkscape-font-specification:'Ubuntu, Medium Italic';font-variant-ligatures:normal;font-variant-caps:normal;font-variant-numeric:normal;font-feature-settings:normal;text-align:start;letter-spacing:0px;word-spacing:0px;writing-mode:lr-tb;text-anchor:start;fill:#0056db;fill-opacity:1;stroke:none;stroke-width:0.07057038"
           xml:space="preserve"><tspan
             style="font-style:italic;font-variant:normal;font-weight:500;font-stretch:normal;font-size:2.82280993px;font-family:Ubuntu;-inkscape-font-specification:'Ubuntu, Medium Italic';font-variant-ligatures:normal;font-variant-caps:normal;font-variant-numeric:normal;font-feature-settings:normal;text-align:start;writing-mode:lr-tb;text-anchor:start;fill:#0056db;fill-opacity:1;stroke-width:0.07057038"
             y="295.13419"
             x="3.097676"
             id="tspan815-3"
             sodipodi:role="line">Base</tspan></text>
      </g>
    </g>
  </g>
  <g
     inkscape:label="foreground"
     inkscape:groupmode="layer"
     id="layer1"
     transform="translate(0,-263.13333)"
     style="display:inline">
    <path
       sodipodi:type="star"
       style="fill:#ebb800;fill-opacity:1;stroke:none;stroke-width:0.62627345;stroke-linecap:round;stroke-linejoin:round;stroke-miterlimit:4;stroke-dasharray:none;stroke-dashoffset:0;stroke-opacity:1;paint-order:markers fill stroke"
       id="path1458"
       sodipodi:sides="5"
       sodipodi:cx="17.418587"
       sodipodi:cy="266.72144"
       sodipodi:r1="3.1092858"
       sodipodi:r2="1.1982617"
       sodipodi:arg1="0.64350111"
       sodipodi:arg2="1.2718196"
       inkscape:flatsided="false"
       inkscape:rounded="0"
       inkscape:randomized="0"
       d="m 19.906015,268.58701 -2.134489,-0.72047 -1.358545,1.79707 0.02561,-2.25265 -2.128932,-0.73673 2.150318,-0.67175 0.04279,-2.2524 1.303359,1.83749 2.155379,-0.65533 -1.344798,1.80739 z"
       inkscape:transform-center-x="0.28959224"
       inkscape:transform-center-y="-0.014889809" />
    <path
       sodipodi:type="star"
       style="display:inline;fill:#ebb800;fill-opacity:1;stroke:none;stroke-width:0.62627357;stroke-linecap:round;stroke-linejoin:round;stroke-miterlimit:4;stroke-dasharray:none;stroke-dashoffset:0;stroke-opacity:1;paint-order:markers fill stroke"
       id="path1458-9"
       sodipodi:sides="5"
       sodipodi:cx="9.2774725"
       sodipodi:cy="268.41302"
       sodipodi:r1="3.1092861"
       sodipodi:r2="1.1982617"
       sodipodi:arg1="0.64350111"
       sodipodi:arg2="1.2718196"
       inkscape:flatsided="false"
       inkscape:rounded="0"
       inkscape:randomized="0"
       d="m 11.764901,270.2786 -2.1344895,-0.72047 -1.3585453,1.79707 0.025611,-2.25265 -2.1289324,-0.73673 2.1503183,-0.67175 0.042793,-2.2524 1.3033588,1.83749 2.1553794,-0.65533 -1.344798,1.80739 z"
       inkscape:transform-center-x="0.28959176"
       inkscape:transform-center-y="-0.014931149" />
    <path
       sodipodi:type="star"
       style="display:inline;fill:#ebb800;fill-opacity:1;stroke:none;stroke-width:0.62627357;stroke-linecap:round;stroke-linejoin:round;stroke-miterlimit:4;stroke-dasharray:none;stroke-dashoffset:0;stroke-opacity:1;paint-order:markers fill stroke"
       id="path1458-0"
       sodipodi:sides="5"
       sodipodi:cx="6.0846319"
       sodipodi:cy="274.58929"
       sodipodi:r1="3.1092861"
       sodipodi:r2="1.1982617"
       sodipodi:arg1="0.64350111"
       sodipodi:arg2="1.2718196"
       inkscape:flatsided="false"
       inkscape:rounded="0"
       inkscape:randomized="0"
       d="m 8.5720608,276.45487 -2.1344899,-0.72047 -1.3585453,1.79707 0.025611,-2.25265 -2.1289324,-0.73673 2.1503183,-0.67175 0.042793,-2.2524 1.3033589,1.83749 2.1553797,-0.65533 -1.3447982,1.80739 z"
       inkscape:transform-center-x="0.28959158"
       inkscape:transform-center-y="-0.014959588" />
    <path
       sodipodi:type="star"
       style="display:inline;fill:#ebb800;fill-opacity:1;stroke:none;stroke-width:0.62627357;stroke-linecap:round;stroke-linejoin:round;stroke-miterlimit:4;stroke-dasharray:none;stroke-dashoffset:0;stroke-opacity:1;paint-order:markers fill stroke"
       id="path1458-2"
       sodipodi:sides="5"
       sodipodi:cx="9.5391798"
       sodipodi:cy="280.71326"
       sodipodi:r1="3.1092861"
       sodipodi:r2="1.1982617"
       sodipodi:arg1="0.64350111"
       sodipodi:arg2="1.2718196"
       inkscape:flatsided="false"
       inkscape:rounded="0"
       inkscape:randomized="0"
       d="m 12.026609,282.57883 -2.1344902,-0.72047 -1.3585453,1.79708 0.025611,-2.25266 -2.1289324,-0.73673 2.1503183,-0.67175 0.042793,-2.2524 1.3033588,1.8375 2.1553801,-0.65534 -1.344799,1.80739 z"
       inkscape:transform-center-x="0.28959216"
       inkscape:transform-center-y="-0.014959952" />
  </g>
</svg>
